<svg width="225" height="226" viewBox="0 0 225 226" fill="none" xmlns="http://www.w3.org/2000/svg">
<path d="M0.324707 112.673V0H0.471799L60.6329 85.3141L51.5131 83.2548L111.527 0H111.821V112.673H90.4929V48.0995L91.8167 59.1315L55.1905 111.202H54.8963L17.2404 59.1315L20.9178 48.982V112.673H0.324707Z" fill="white"/>
<path d="M111.497 112.674L111.497 225.347L111.35 225.347L51.1885 140.033L60.3083 142.092L0.294228 225.347L3.05176e-05 225.347L4.03678e-05 112.673L21.3286 112.673L21.3286 177.247L20.0047 166.215L56.6309 114.144L56.9251 114.144L94.581 166.215L90.9037 176.365L90.9037 112.674L111.497 112.674Z" fill="url(#paint0_linear_40_9)" fill-opacity="0.15"/>
<path d="M111.716 112.673H223.2V133.266H177.729V225.235H156.4V133.266H111.716V112.673Z" fill="white"/>
<path d="M223.2 112.588L111.716 112.588L111.716 91.9948L157.188 91.9948L157.188 0.0261707L178.516 0.0261725L178.516 91.9948L223.2 91.9948L223.2 112.588Z" fill="url(#paint1_linear_40_9)" fill-opacity="0.15"/>
<defs>
<linearGradient id="paint0_linear_40_9" x1="55.7484" y1="225.347" x2="55.7484" y2="112.674" gradientUnits="userSpaceOnUse">
<stop stop-color="white" stop-opacity="0"/>
<stop offset="1" stop-color="white"/>
</linearGradient>
<linearGradient id="paint1_linear_40_9" x1="167.458" y1="112.588" x2="167.458" y2="0.0261716" gradientUnits="userSpaceOnUse">
<stop stop-color="white"/>
<stop offset="1" stop-color="white" stop-opacity="0"/>
</linearGradient>
</defs>
</svg>
